<svg xmlns="http://www.w3.org/2000/svg" xmlns:xlink="http://www.w3.org/1999/xlink" viewBox="0 0 194.56 194.76"><defs><style>.cls-1{fill:url(#linear-gradient);}.cls-2{fill:url(#linear-gradient-2);}.cls-3{fill:none;stroke:#000;stroke-linecap:round;stroke-linejoin:round;stroke-width:0.5px;}</style><linearGradient id="linear-gradient" x1="139.72" y1="1.38" x2="134.58" y2="158.99" gradientUnits="userSpaceOnUse"><stop offset="1"/></linearGradient><linearGradient id="linear-gradient-2" x1="58.85" y1="-1.25" x2="53.72" y2="156.35" xlink:href="#linear-gradient"/></defs><g id="Layer_2" data-name="Layer 2"><g id="Layer_1-2" data-name="Layer 1"><polygon class="cls-1" points="158.15 121.51 194.31 194.51 170.84 194.51 146.38 145.51 74.14 145.51 121.94 49.23 133.56 73.53 109.87 121.51 158.15 121.51"/><polygon class="cls-2" points="97.5 0.25 110.22 25.01 24.69 194.51 0.25 194.51 97.5 0.25"/><polygon class="cls-3" points="97.5 0.25 110.22 25.01 24.69 194.51 0.25 194.51 97.5 0.25"/><polygon class="cls-3" points="121.94 49.23 133.56 73.53 109.87 121.51 158.15 121.51 194.31 194.51 170.84 194.51 146.38 145.51 74.14 145.51 121.94 49.23"/></g></g></svg>